<svg width="940" height="268" viewBox="0 0 940 268" fill="none" xmlns="http://www.w3.org/2000/svg">
<path d="M934.5 138C934.5 155.269 921.61 171.844 897.991 187.013C874.395 202.168 840.219 215.835 797.941 227.32C713.394 250.288 596.565 264.5 467.5 264.5C338.435 264.5 221.606 250.288 137.059 227.32C94.7815 215.835 60.6046 202.168 37.0087 187.013C13.3899 171.844 0.5 155.269 0.5 138C0.5 120.731 13.3899 104.156 37.0087 88.9866C60.6046 73.8316 94.7815 60.1649 137.059 48.68C221.606 25.7121 338.435 11.5 467.5 11.5C596.565 11.5 713.394 25.7121 797.941 48.68C840.219 60.1649 874.395 73.8316 897.991 88.9866C921.61 104.156 934.5 120.731 934.5 138Z" stroke="url(#paint0_angular_20_1061)" style="mix-blend-mode:overlay"/>
<path d="M934.5 129C934.5 146.269 921.61 162.844 897.991 178.013C874.395 193.168 840.219 206.835 797.941 218.32C713.394 241.288 596.565 255.5 467.5 255.5C338.435 255.5 221.606 241.288 137.059 218.32C94.7815 206.835 60.6046 193.168 37.0087 178.013C13.3899 162.844 0.5 146.269 0.5 129C0.5 111.731 13.3899 95.1562 37.0087 79.9866C60.6046 64.8316 94.7815 51.1649 137.059 39.68C221.606 16.7121 338.435 2.5 467.5 2.5C596.565 2.5 713.394 16.7121 797.941 39.68C840.219 51.1649 874.395 64.8316 897.991 79.9866C921.61 95.1562 934.5 111.731 934.5 129Z" stroke="url(#paint1_angular_20_1061)" style="mix-blend-mode:overlay"/>
<path d="M934.5 127C934.5 144.269 921.61 160.844 897.991 176.013C874.395 191.168 840.219 204.835 797.941 216.32C713.394 239.288 596.565 253.5 467.5 253.5C338.435 253.5 221.606 239.288 137.059 216.32C94.7815 204.835 60.6046 191.168 37.0087 176.013C13.3899 160.844 0.5 144.269 0.5 127C0.5 109.731 13.3899 93.1562 37.0087 77.9866C60.6046 62.8316 94.7815 49.1649 137.059 37.68C221.606 14.7121 338.435 0.5 467.5 0.5C596.565 0.5 713.394 14.7121 797.941 37.68C840.219 49.1649 874.395 62.8316 897.991 77.9866C921.61 93.1562 934.5 109.731 934.5 127Z" stroke="url(#paint2_angular_20_1061)" style="mix-blend-mode:overlay"/>
<path d="M939.5 138C939.5 155.269 926.61 171.844 902.991 187.013C879.395 202.168 845.219 215.835 802.941 227.32C718.394 250.288 601.565 264.5 472.5 264.5C343.435 264.5 226.606 250.288 142.059 227.32C99.7815 215.835 65.6046 202.168 42.0087 187.013C18.3899 171.844 5.5 155.269 5.5 138C5.5 120.731 18.3899 104.156 42.0087 88.9866C65.6046 73.8316 99.7815 60.1649 142.059 48.68C226.606 25.7121 343.435 11.5 472.5 11.5C601.565 11.5 718.394 25.7121 802.941 48.68C845.219 60.1649 879.395 73.8316 902.991 88.9866C926.61 104.156 939.5 120.731 939.5 138Z" stroke="url(#paint3_angular_20_1061)" style="mix-blend-mode:overlay"/>
<path d="M934.5 132C934.5 149.269 921.61 165.844 897.991 181.013C874.395 196.168 840.219 209.835 797.941 221.32C713.394 244.288 596.565 258.5 467.5 258.5C338.435 258.5 221.606 244.288 137.059 221.32C94.7815 209.835 60.6046 196.168 37.0087 181.013C13.3899 165.844 0.5 149.269 0.5 132C0.5 114.731 13.3899 98.1562 37.0087 82.9866C60.6046 67.8316 94.7815 54.1649 137.059 42.68C221.606 19.7121 338.435 5.5 467.5 5.5C596.565 5.5 713.394 19.7121 797.941 42.68C840.219 54.1649 874.395 67.8316 897.991 82.9866C921.61 98.1562 934.5 114.731 934.5 132Z" stroke="url(#paint4_angular_20_1061)" style="mix-blend-mode:overlay"/>
<path d="M934.5 135C934.5 152.269 921.61 168.844 897.991 184.013C874.395 199.168 840.219 212.835 797.941 224.32C713.394 247.288 596.565 261.5 467.5 261.5C338.435 261.5 221.606 247.288 137.059 224.32C94.7815 212.835 60.6046 199.168 37.0087 184.013C13.3899 168.844 0.5 152.269 0.5 135C0.5 117.731 13.3899 101.156 37.0087 85.9866C60.6046 70.8316 94.7815 57.1649 137.059 45.68C221.606 22.7121 338.435 8.5 467.5 8.5C596.565 8.5 713.394 22.7121 797.941 45.68C840.219 57.1649 874.395 70.8316 897.991 85.9866C921.61 101.156 934.5 117.731 934.5 135Z" stroke="url(#paint5_angular_20_1061)" style="mix-blend-mode:overlay"/>
<path d="M934.5 141C934.5 158.269 921.61 174.844 897.991 190.013C874.395 205.168 840.219 218.835 797.941 230.32C713.394 253.288 596.565 267.5 467.5 267.5C338.435 267.5 221.606 253.288 137.059 230.32C94.7815 218.835 60.6046 205.168 37.0087 190.013C13.3899 174.844 0.5 158.269 0.5 141C0.5 123.731 13.3899 107.156 37.0087 91.9866C60.6046 76.8316 94.7815 63.1649 137.059 51.68C221.606 28.7121 338.435 14.5 467.5 14.5C596.565 14.5 713.394 28.7121 797.941 51.68C840.219 63.1649 874.395 76.8316 897.991 91.9866C921.61 107.156 934.5 123.731 934.5 141Z" stroke="url(#paint6_angular_20_1061)" style="mix-blend-mode:overlay"/>
<defs>
<radialGradient id="paint0_angular_20_1061" cx="0" cy="0" r="1" gradientUnits="userSpaceOnUse" gradientTransform="translate(467.5 138) rotate(90) scale(127 467.5)">
<stop stop-color="white" stop-opacity="0.8"/>
<stop offset="0.255208" stop-color="white" stop-opacity="0.5"/>
<stop offset="0.447355" stop-color="white" stop-opacity="0"/>
<stop offset="0.581529" stop-color="white" stop-opacity="0"/>
<stop offset="0.748554" stop-color="white" stop-opacity="0.66"/>
<stop offset="1" stop-color="white" stop-opacity="0.6"/>
</radialGradient>
<radialGradient id="paint1_angular_20_1061" cx="0" cy="0" r="1" gradientUnits="userSpaceOnUse" gradientTransform="translate(467.5 129) rotate(90) scale(127 467.5)">
<stop stop-color="white" stop-opacity="0.8"/>
<stop offset="0.255208" stop-color="white" stop-opacity="0.5"/>
<stop offset="0.447355" stop-color="white" stop-opacity="0"/>
<stop offset="0.581529" stop-color="white" stop-opacity="0"/>
<stop offset="0.748554" stop-color="white" stop-opacity="0.66"/>
<stop offset="1" stop-color="white" stop-opacity="0.6"/>
</radialGradient>
<radialGradient id="paint2_angular_20_1061" cx="0" cy="0" r="1" gradientUnits="userSpaceOnUse" gradientTransform="translate(467.5 127) rotate(90) scale(127 467.5)">
<stop stop-color="white" stop-opacity="0.8"/>
<stop offset="0.255208" stop-color="white" stop-opacity="0.5"/>
<stop offset="0.447355" stop-color="white" stop-opacity="0"/>
<stop offset="0.581529" stop-color="white" stop-opacity="0"/>
<stop offset="0.748554" stop-color="white" stop-opacity="0.66"/>
<stop offset="1" stop-color="white" stop-opacity="0.6"/>
</radialGradient>
<radialGradient id="paint3_angular_20_1061" cx="0" cy="0" r="1" gradientUnits="userSpaceOnUse" gradientTransform="translate(472.5 138) rotate(90) scale(127 467.5)">
<stop stop-color="white" stop-opacity="0.8"/>
<stop offset="0.255208" stop-color="white" stop-opacity="0.5"/>
<stop offset="0.447355" stop-color="white" stop-opacity="0"/>
<stop offset="0.581529" stop-color="white" stop-opacity="0"/>
<stop offset="0.748554" stop-color="white" stop-opacity="0.66"/>
<stop offset="1" stop-color="white" stop-opacity="0.6"/>
</radialGradient>
<radialGradient id="paint4_angular_20_1061" cx="0" cy="0" r="1" gradientUnits="userSpaceOnUse" gradientTransform="translate(467.5 132) rotate(90) scale(127 467.5)">
<stop stop-color="white" stop-opacity="0.8"/>
<stop offset="0.255208" stop-color="white" stop-opacity="0.5"/>
<stop offset="0.447355" stop-color="white" stop-opacity="0"/>
<stop offset="0.581529" stop-color="white" stop-opacity="0"/>
<stop offset="0.748554" stop-color="white" stop-opacity="0.66"/>
<stop offset="1" stop-color="white" stop-opacity="0.6"/>
</radialGradient>
<radialGradient id="paint5_angular_20_1061" cx="0" cy="0" r="1" gradientUnits="userSpaceOnUse" gradientTransform="translate(467.5 135) rotate(90) scale(127 467.5)">
<stop stop-color="white" stop-opacity="0.8"/>
<stop offset="0.255208" stop-color="white" stop-opacity="0.5"/>
<stop offset="0.447355" stop-color="white" stop-opacity="0"/>
<stop offset="0.581529" stop-color="white" stop-opacity="0"/>
<stop offset="0.748554" stop-color="white" stop-opacity="0.66"/>
<stop offset="1" stop-color="white" stop-opacity="0.6"/>
</radialGradient>
<radialGradient id="paint6_angular_20_1061" cx="0" cy="0" r="1" gradientUnits="userSpaceOnUse" gradientTransform="translate(467.5 141) rotate(90) scale(127 467.5)">
<stop stop-color="white" stop-opacity="0.8"/>
<stop offset="0.255208" stop-color="white" stop-opacity="0.5"/>
<stop offset="0.447355" stop-color="white" stop-opacity="0"/>
<stop offset="0.581529" stop-color="white" stop-opacity="0"/>
<stop offset="0.748554" stop-color="white" stop-opacity="0.66"/>
<stop offset="1" stop-color="white" stop-opacity="0.6"/>
</radialGradient>
</defs>
</svg>
