<svg width="25" height="26" viewBox="0 0 25 26" fill="none" xmlns="http://www.w3.org/2000/svg">
<path d="M20.8438 16.1458C19.5625 16.1458 18.3229 15.9375 17.1667 15.5625C16.8021 15.4375 16.3958 15.5312 16.1146 15.8125L14.4792 17.8646C11.5312 16.4583 8.77083 13.8021 7.30208 10.75L9.33333 9.02083C9.61458 8.72917 9.69792 8.32292 9.58333 7.95833C9.19792 6.80208 9 5.5625 9 4.28125C9 3.71875 8.53125 3.25 7.96875 3.25H4.36458C3.80208 3.25 3.125 3.5 3.125 4.28125C3.125 13.9583 11.1771 22 20.8438 22C21.5833 22 21.875 21.3437 21.875 20.7708V17.1771C21.875 16.6146 21.4062 16.1458 20.8438 16.1458Z" fill="black"/>
</svg>
