<svg width="25" height="26" viewBox="0 0 25 26" fill="none" xmlns="http://www.w3.org/2000/svg">
<path d="M19.7893 10.1537V5.67449C19.7893 5.10157 19.3205 4.63282 18.7476 4.63282H17.7059C17.133 4.63282 16.6643 5.10157 16.6643 5.67449V7.34116L13.1955 4.21616C12.7997 3.86199 12.1955 3.86199 11.7997 4.21616L3.09135 12.0599C2.73718 12.3724 2.95593 12.9662 3.4351 12.9662H5.20593V20.2578C5.20593 20.8307 5.67468 21.2995 6.2476 21.2995H9.3726C9.94552 21.2995 10.4143 20.8307 10.4143 20.2578V15.0495H14.5809V20.2578C14.5809 20.8307 15.0497 21.2995 15.6226 21.2995H18.7476C19.3205 21.2995 19.7893 20.8307 19.7893 20.2578V12.9662H21.5601C22.0393 12.9662 22.2684 12.3724 21.9039 12.0599L19.7893 10.1537ZM10.4143 10.8828C10.4143 9.73699 11.3518 8.79949 12.4976 8.79949C13.6434 8.79949 14.5809 9.73699 14.5809 10.8828H10.4143Z" fill="black"/>
</svg>
