<svg width="25" height="26" viewBox="0 0 25 26" fill="none" xmlns="http://www.w3.org/2000/svg">
<path d="M21.8748 4.29167C20.7186 3.92709 19.4478 3.77084 18.229 3.77084C16.1978 3.77084 14.0103 4.1875 12.4998 5.33334C10.9894 4.1875 8.80192 3.77084 6.77067 3.77084C4.73942 3.77084 2.55192 4.1875 1.0415 5.33334V20.5938C1.0415 20.8542 1.30192 21.1146 1.56234 21.1146C1.6665 21.1146 1.71859 21.0625 1.82275 21.0625C3.229 20.3854 5.26025 19.9167 6.77067 19.9167C8.80192 19.9167 10.9894 20.3333 12.4998 21.4792C13.9061 20.5938 16.4582 19.9167 18.229 19.9167C19.9478 19.9167 21.7186 20.2292 23.1769 21.0104C23.2811 21.0625 23.3332 21.0625 23.4373 21.0625C23.6978 21.0625 23.9582 20.8021 23.9582 20.5417V5.33334C23.3332 4.86459 22.6561 4.55209 21.8748 4.29167ZM21.8748 18.3542C20.729 17.9896 19.479 17.8333 18.229 17.8333C16.4582 17.8333 13.9061 18.5104 12.4998 19.3958V7.41667C13.9061 6.53125 16.4582 5.85417 18.229 5.85417C19.479 5.85417 20.729 6.01042 21.8748 6.375V18.3542Z" fill="white"/>
</svg>
